
<svg xmlns="http://www.w3.org/2000/svg" width="350" height="150">
  <!-- Cluster 1 (bleu clair) -->
  <circle cx="80" cy="40" r="7" fill="deepskyblue" />
  <circle cx="120" cy="60" r="7" fill="deepskyblue" />
  <circle cx="100" cy="80" r="7" fill="deepskyblue" />
  
  <!-- Cluster 2 (vert clair) -->
  <circle cx="280" cy="40" r="7" fill="mediumseagreen" />
  <circle cx="260" cy="80" r="7" fill="mediumseagreen" />
  <circle cx="300" cy="100" r="7" fill="mediumseagreen" />

  <!-- Liaisons moyennes entre les clusters -->
  <line x1="87" y1="40" x2="273" y2="40" stroke="gray" stroke-width="2" stroke-dasharray="6" />
  <line x1="87" y1="40" x2="253" y2="80" stroke="gray" stroke-width="2" stroke-dasharray="6" />
  <line x1="87" y1="40" x2="293" y2="100" stroke="gray" stroke-width="2" stroke-dasharray="6" />
  <line x1="127" y1="60" x2="273" y2="40" stroke="gray" stroke-width="2" stroke-dasharray="6" />
  <line x1="127" y1="60" x2="253" y2="80" stroke="gray" stroke-width="2" stroke-dasharray="6" />
  <line x1="127" y1="60" x2="293" y2="100" stroke="gray" stroke-width="2" stroke-dasharray="6" />
  <line x1="107" y1="80" x2="273" y2="40" stroke="gray" stroke-width="2" stroke-dasharray="6" />
  <line x1="107" y1="80" x2="253" y2="80" stroke="gray" stroke-width="2" stroke-dasharray="6" />
  <line x1="107" y1="80" x2="293" y2="100" stroke="gray" stroke-width="2" stroke-dasharray="6" />

  <!-- Textes des clusters avec police Arial (plus remontés) -->
  <text x="80" y="20" font-size="14" text-anchor="middle" fill="black" font-family="Arial">Cluster A</text>
  <text x="280" y="20" font-size="14" text-anchor="middle" fill="black" font-family="Arial">Cluster B</text>
  <text x="190" y="120" font-size="14" font-style="italic" text-anchor="middle" fill="black" font-family="Arial">Average-linkage clustering</text>
</svg>
